<?xml version="1.0" standalone="no"?>
<!DOCTYPE svg PUBLIC "-//W3C//DTD SVG 20010904//EN"
 "http://www.w3.org/TR/2001/REC-SVG-20010904/DTD/svg10.dtd">
<svg version="1.0" xmlns="http://www.w3.org/2000/svg"
 width="400.000000pt" height="400.000000pt" viewBox="0 0 400.000000 400.000000"
 preserveAspectRatio="xMidYMid meet">
<metadata>
Created by potrace 1.11, written by Peter Selinger 2001-2013
</metadata>
<g transform="translate(0.000000,400.000000) scale(0.100000,-0.100000)"
fill="#000000" stroke="none">
<path d="M249 2565 c-4 0 -9 -51 -8 -95 0 -30 1 -277 2 -547 1 -335 4 -493 12
-494 38 -5 538 -3 546 2 5 3 7 12 4 20 -4 12 -46 14 -247 14 -177 0 -245 3
-253 12 -15 15 -18 471 -3 490 6 8 74 11 228 11 121 1 224 3 229 7 5 3 9 14 8
25 -1 22 10 22 -293 21 -116 0 -165 3 -172 12 -9 12 -15 436 -6 469 4 15 29
17 251 18 135 0 250 3 254 6 4 2 6 10 3 17 -3 9 -72 12 -279 12 -151 0 -275 0
-276 0z"/>
<path d="M1120 2560 c-13 -8 -15 -84 -15 -569 0 -308 3 -557 7 -555 5 3 8 0 8
-5 0 -14 24 -9 30 6 3 7 5 89 4 182 0 132 3 171 13 175 7 3 13 12 13 20 0 8 5
18 12 22 7 5 9 2 4 -7 -4 -8 -1 -5 8 6 8 11 20 25 26 32 5 7 10 17 10 23 0 6
5 8 10 5 6 -3 10 -3 10 2 0 9 45 64 82 101 30 29 42 28 60 -5 30 -58 60 -103
71 -103 6 0 7 -3 4 -7 -4 -4 5 -20 20 -36 16 -17 21 -26 13 -22 -11 6 -10 3 3
-12 9 -11 17 -25 17 -32 0 -7 5 -9 10 -6 6 3 10 -1 10 -9 0 -9 5 -16 10 -16 6
0 10 -5 10 -11 0 -6 13 -29 29 -52 16 -23 29 -45 30 -49 0 -5 10 -18 21 -30
43 -49 50 -58 43 -58 -5 0 1 -7 11 -15 11 -8 16 -15 12 -15 -4 0 5 -17 21 -37
15 -21 28 -39 29 -41 1 -1 15 -7 33 -12 23 -6 30 -6 24 3 -20 36 -68 103 -77
109 -7 5 -7 8 -1 8 6 0 1 7 -9 15 -11 8 -17 15 -12 15 4 0 -8 20 -26 45 -57
77 -69 94 -67 101 0 4 -4 10 -9 13 -5 3 -39 51 -76 106 -36 55 -79 119 -96
143 -16 23 -30 47 -30 52 0 6 -4 10 -8 10 -15 0 -11 41 6 59 9 10 28 33 42 51
14 19 31 39 38 47 7 7 10 13 6 13 -4 0 3 8 14 19 12 10 22 21 22 25 0 6 30 44
58 72 7 8 11 14 8 14 -3 0 2 9 12 19 30 33 70 86 69 91 -1 3 15 23 36 45 20
21 37 42 37 46 0 15 -30 17 -44 4 -7 -8 -16 -11 -20 -8 -3 4 -6 0 -6 -8 0 -8
-9 -21 -19 -29 -11 -7 -18 -17 -15 -22 3 -4 1 -8 -4 -8 -5 0 -26 -24 -46 -54
-21 -30 -45 -64 -55 -75 -9 -11 -26 -32 -37 -47 -10 -14 -29 -37 -42 -50 -13
-13 -20 -24 -18 -24 6 0 -27 -41 -59 -73 -11 -11 -13 -16 -5 -12 8 4 6 -1 -5
-13 -32 -33 -73 -86 -73 -95 -1 -5 -11 -17 -23 -28 -12 -10 -20 -19 -16 -19 3
0 -15 -20 -39 -45 -24 -25 -44 -50 -44 -54 0 -7 -23 -21 -34 -21 -1 0 -2 153
-2 340 0 205 -4 344 -10 350 -5 5 -15 6 -24 0z"/>
<path d="M2055 2562 c-11 -7 -15 -1125 -4 -1136 2 -3 14 -3 24 0 19 5 20 15
19 267 0 144 2 267 4 274 3 8 77 12 275 12 150 0 284 -2 298 -5 l26 -5 -1
-261 c-1 -267 4 -307 36 -281 11 10 13 107 12 570 -1 307 -2 560 -3 563 -2 10
-41 6 -42 -5 -1 -5 -2 -122 -3 -258 -1 -208 -3 -249 -16 -257 -9 -5 -133 -9
-293 -7 -215 1 -280 5 -286 15 -4 7 -7 121 -7 254 2 191 -1 244 -12 254 -16
16 -14 16 -27 6z"/>
<path d="M3226 2562 c-2 -1 -14 -5 -26 -7 -13 -2 -32 -12 -43 -22 -15 -13 -18
-14 -13 -3 4 8 -4 2 -18 -15 -43 -49 -47 -55 -39 -55 4 0 3 -4 -3 -8 -26 -17
-32 -102 -30 -482 1 -335 3 -392 16 -400 8 -5 12 -10 7 -10 -13 0 24 -53 61
-87 19 -18 39 -30 43 -27 5 3 9 1 9 -4 0 -12 9 -12 210 -15 96 -2 180 1 186 5
7 5 16 8 20 6 22 -6 109 63 97 76 -4 3 -1 6 6 6 10 0 26 29 38 70 3 8 6 191 7
405 3 386 -1 440 -31 458 -7 5 -11 12 -9 16 5 8 -68 75 -85 77 -5 1 -11 3 -14
4 -3 1 -9 4 -15 5 -5 1 -11 4 -12 5 -4 3 -359 5 -362 2z m370 -47 c23 -9 50
-26 62 -38 46 -50 48 -68 47 -492 0 -393 -1 -401 -22 -435 -12 -20 -40 -46
-62 -58 -39 -22 -49 -23 -228 -20 -178 3 -190 4 -221 26 -69 50 -69 50 -67
507 1 403 1 411 23 450 12 22 24 39 27 37 3 -1 19 5 35 13 17 9 56 19 88 23
91 12 272 4 318 -13z"/>
</g>
</svg>
